<svg width="26.752" height="26.752" xmlns="http://www.w3.org/2000/svg">

  <g>
  <title>background</title>
  <rect fill="none" id="canvas_background" height="402" width="582" y="-1" x="-1"/>
  </g>
  <g>
  <title>Layer 1</title>
  <path fill="#f25b26" id="svg_1" d="m15.497,13.376l10.815,-10.814c0.586,-0.585 0.586,-1.535 0,-2.121s-1.535,-0.586 -2.121,0l-10.815,10.814l-10.814,-10.816c-0.586,-0.586 -1.535,-0.586 -2.121,0c-0.586,0.585 -0.586,1.535 0,2.121l10.814,10.815l-10.816,10.815c-0.586,0.586 -0.586,1.535 0,2.121c0.293,0.293 0.677,0.439 1.061,0.439s0.768,-0.146 1.061,-0.439l10.815,-10.814l10.814,10.815c0.293,0.293 0.677,0.439 1.061,0.439s0.768,-0.146 1.061,-0.439c0.586,-0.586 0.586,-1.535 0,-2.121l-10.815,-10.815z"/>
  </g>
</svg>
