<svg width="31.92" height="31.92" xmlns="http://www.w3.org/2000/svg">

 <g>
  <title>background</title>
  <rect fill="none" id="canvas_background" height="402" width="582" y="-1" x="-1"/>
 </g>
 <g>
  <title>Layer 1</title>
  <path id="svg_1" d="m15.992526,3.858178c6.595,0 11.96,5.365 11.96,11.96s-5.365,11.96 -11.96,11.96s-11.96,-5.365 -11.96,-11.96s5.365,-11.96 11.96,-11.96m0,-4c-8.814,0 -15.96,7.145 -15.96,15.96c0,8.813 7.146,15.96 15.96,15.96s15.96,-7.147 15.96,-15.96c0,-8.815 -7.146,-15.96 -15.96,-15.96l0,0z" fill="#d22856"/>
  <path fill="#d22856" id="svg_2" d="m15.992526,24.149178c4.706,0 8.52,-3.813 8.52,-8.52c0,-4.705 -3.813,-8.519 -8.52,-8.519"/>
 </g>
</svg>