<svg width="78.672" height="63.789" xmlns="http://www.w3.org/2000/svg">

 <g>
  <title>background</title>
  <rect fill="none" id="canvas_background" height="402" width="582" y="-1" x="-1"/>
 </g>
 <g>
  <title>Layer 1</title>
  <g fill="white" id="svg_1">
   <path stroke="#fff" fill="#efefef" id="svg_2" d="m34.967,7.063l-4.254,-7.063c-2.441,1.495 -30.713,12.207 -30.713,39.617c0,7.231 0.336,24.172 18.9,24.172c11.187,0 13.94,-10.279 13.94,-13.584c0,-21.977 -21.382,-14.177 -21.382,-14.177c0,-18.071 19.805,-26.844 23.509,-28.965z"/>
  </g>
  <g id="svg_3">
   <path fill="#efefef" id="svg_4" d="m78.672,7.063l-4.254,-7.063c-2.44,1.495 -30.713,12.207 -30.713,39.617c0,7.231 0.337,24.172 18.9,24.172c11.187,0 13.939,-10.279 13.939,-13.584c0,-21.977 -21.381,-14.177 -21.381,-14.177c0.002,-18.071 19.806,-26.844 23.509,-28.965z"/>
  </g>
 </g>
</svg>