<svg width="19.697" height="19.696" xmlns="http://www.w3.org/2000/svg">

  <g>
  <title>background</title>
  <rect fill="none" id="canvas_background" height="18" width="23" y="-1" x="-1"/>
  </g>
  <g>
  <title>Layer 1</title>
  <path id="svg_1" d="m9.848,0c-3.508,0 -7.025,0.628 -8.302,1.878c-1.058,1.04 -1.412,2.874 -1.53,4.035c0,0 -0.016,0.115 -0.016,0.165c0,0.454 0.369,0.82 0.819,0.82c0.054,0 2.028,-0.161 3.218,-0.259c0.029,-0.004 0.058,-0.008 0.086,-0.017c0.443,-0.012 0.801,-0.372 0.801,-0.819l0.003,-1.617c0,-0.5 0.407,-0.902 0.907,-0.902l8.027,0c0.499,0 0.907,0.402 0.907,0.902l0.003,1.617c0,0.447 0.356,0.808 0.802,0.82c0.027,0.009 0.056,0.013 0.085,0.017c1.19,0.098 3.164,0.259 3.217,0.259c0.451,0 0.822,-0.366 0.822,-0.82c0,-0.05 -0.018,-0.165 -0.018,-0.165c-0.118,-1.161 -0.472,-2.995 -1.53,-4.035c-1.276,-1.251 -4.793,-1.879 -8.301,-1.879zm0,10.67c-0.908,0 -1.643,0.733 -1.643,1.64c0,0.907 0.734,1.641 1.643,1.641c0.906,0 1.641,-0.733 1.641,-1.641c-0.001,-0.906 -0.735,-1.64 -1.641,-1.64zm-1.232,-3.695l0,-1.024c0,-0.567 -0.46,-1.026 -1.025,-1.026c-0.566,0 -1.024,0.459 -1.024,1.026l0,1.024l-5.537,5.913c-0.382,0.376 -0.619,0.894 -0.619,1.47l0,1.646c0,0.907 0.734,1.643 1.641,1.643l0.411,0l0,1.023c0,0.568 0.46,1.026 1.026,1.026c0.565,0 1.024,-0.458 1.024,-1.026l0,-1.023l10.669,0l0,1.023c0,0.568 0.46,1.026 1.025,1.026c0.567,0 1.026,-0.458 1.026,-1.026l0,-1.023l0.411,0c0.905,0 1.64,-0.735 1.64,-1.643l0,-1.646c0,-0.576 -0.236,-1.094 -0.618,-1.47l-5.536,-5.913l0,-1.024c0,-0.567 -0.459,-1.026 -1.024,-1.026c-0.567,0 -1.027,0.459 -1.027,1.026l0,1.024l-2.463,0zm1.232,2.053c1.814,0 3.282,1.468 3.282,3.282s-1.468,3.282 -3.282,3.282c-1.813,0 -3.281,-1.468 -3.281,-3.282s1.467,-3.282 3.281,-3.282z" fill="#d22856"/>
  </g>
</svg>
