<svg width="12.545" height="11.989999999999998" xmlns="http://www.w3.org/2000/svg">

 <g>
  <title>background</title>
  <rect fill="none" id="canvas_background" height="402" width="582" y="-1" x="-1"/>
 </g>
 <g>
  <title>Layer 1</title>
  <g id="svg_1">
   <path fill="#d22856" id="svg_2" d="m6.051397,11.993c-0.212,0 -0.412,-0.091 -0.552,-0.249c-3.798,-4.324 -4.644,-5.298 -4.858,-5.572l-0.004,0c-0.529,-0.675 -0.821,-1.518 -0.821,-2.373c0,-2.095 1.704,-3.799 3.799,-3.799c0.934,0 1.804,0.32 2.484,0.898c0.696,-0.578 1.56,-0.898 2.463,-0.898c2.095,0 3.799,1.704 3.799,3.799c0,0.909 -0.318,1.754 -0.896,2.381l-4.86,5.561c-0.141,0.161 -0.342,0.252 -0.554,0.252l0,0zm-4.245,-6.706c0.208,0.255 2.471,2.839 4.243,4.858l4.323,-4.944c0.34,-0.369 0.52,-0.86 0.52,-1.399c0,-1.285 -1.045,-2.331 -2.33,-2.331c-0.729,0 -1.421,0.344 -1.9,0.943c-0.142,0.178 -0.353,0.267 -0.585,0.275c-0.227,-0.003 -0.439,-0.111 -0.575,-0.294c-0.441,-0.587 -1.129,-0.925 -1.887,-0.925c-1.285,0 -2.33,1.046 -2.33,2.331c0,0.678 0.275,1.171 0.507,1.467c0.004,0.006 0.01,0.012 0.014,0.019z"/>
  </g>
 </g>
</svg>