<svg width="17.988" height="13.966" xmlns="http://www.w3.org/2000/svg">

  <g>
  <title>background</title>
  <rect fill="none" id="canvas_background" height="18" width="23" y="-1" x="-1"/>
  </g>
  <g>
    <title>Layer 1</title>
    <g id="svg_1">
      <g id="svg_2">
        <g id="svg_3">
        <path stroke="#d22856" id="svg_4" d="m14.914,1.814c1.197,-0.998 0.902,-1.814 -0.657,-1.814l-10.526,0c-1.56,0 -1.854,0.816 -0.657,1.814l3.742,3.118c1.197,0.998 3.158,0.998 4.355,0l3.743,-3.118z" fill="#d22856"/>
        </g>
        <g id="svg_5">
          <path stroke="#d22856" id="svg_6" d="m11.913,7.044c-1.198,0.998 -2.195,1.825 -2.218,1.836c0,0 0,0 -0.02,0.013c-0.074,0.056 -0.152,0.102 -0.235,0.136c-0.033,0.015 -0.066,0.034 -0.1,0.048c-0.11,0.034 -0.223,0.058 -0.335,0.059c-0.003,0 -0.007,0.001 -0.01,0.001c0,0 0,0 -0.001,0s-0.001,0 -0.001,0c-0.003,0 -0.007,-0.001 -0.01,-0.001c-0.113,-0.002 -0.224,-0.025 -0.335,-0.059c-0.034,-0.014 -0.068,-0.033 -0.1,-0.048c-0.083,-0.034 -0.16,-0.08 -0.235,-0.136c-0.02,-0.013 -0.02,-0.013 -0.02,-0.013c-0.022,-0.012 -1.02,-0.838 -2.218,-1.836l-3.897,-3.248c-1.199,-0.998 -2.178,-0.539 -2.178,1.02l0,6.315c0,1.56 1.275,2.835 2.835,2.835l12.318,0c1.56,0 2.835,-1.275 2.835,-2.835l0,-6.315c0,-1.559 -0.979,-2.018 -2.178,-1.02l-3.897,3.248z" fill="#d22856"/>
        </g>
      </g>
    </g>
  </g>
</svg>
