<svg width="298" height="345.097" xmlns="http://www.w3.org/2000/svg">

 <g>
  <title>background</title>
  <rect fill="none" id="canvas_background" height="18" width="23" y="-1" x="-1"/>
 </g>
 <g>
  <title>Layer 1</title>
  <path fill="#dedede" id="svg_1" d="m264.568,102.055l5.355,-5.355c7.717,-7.717 9.124,-18.938 3.126,-24.935c-5.997,-5.997 -17.217,-4.59 -24.934,3.127l-5.386,5.385c-20.961,-16.985 -46.619,-28.402 -74.729,-31.98l0,-9.583l7.658,0c10.914,0 19.843,-8.711 19.843,-19.357s-8.928,-19.357 -19.842,-19.357l-53.317,0c-10.913,0 -19.842,8.711 -19.842,19.357s8.929,19.357 19.842,19.357l7.658,0l0,9.583c-73.319,9.332 -130,71.947 -130,147.8c0,82.291 66.709,149 149,149c82.29,0 149,-66.709 149,-149c0,-35.663 -12.535,-68.394 -33.432,-94.042zm-115.568,204.209c-60.844,0 -110.167,-49.323 -110.167,-110.167s49.323,-110.167 110.167,-110.167c60.843,0 110.167,49.323 110.167,110.167s-49.324,110.167 -110.167,110.167z"/>
 </g>
</svg>